<?xml version="1.0" encoding="us-ascii" standalone="no"?><svg xmlns="http://www.w3.org/2000/svg" xmlns:xlink="http://www.w3.org/1999/xlink" contentStyleType="text/css" height="858px" preserveAspectRatio="none" style="width:1604px;height:858px;background:#FFFFFF;" version="1.1" viewBox="0 0 1604 858" width="1604px" zoomAndPan="magnify"><defs/><g><text fill="#000000" font-family="sans-serif" font-size="14" font-weight="bold" lengthAdjust="spacing" textLength="292" x="649" y="24.5332">Native OpenPLC facade and collaborators</text><!--cluster Admission and planning--><g id="cluster_Admission and planning"><path d="M516.5,44.6094 L684.5,44.6094 A3.75,3.75 0 0 1 687,47.1094 L694,68.2188 L768.5,68.2188 A2.5,2.5 0 0 1 771,70.7188 L771,313.1094 A2.5,2.5 0 0 1 768.5,315.6094 L516.5,315.6094 A2.5,2.5 0 0 1 514,313.1094 L514,47.1094 A2.5,2.5 0 0 1 516.5,44.6094 " fill="none" style="stroke:#000000;stroke-width:1.5;"/><line style="stroke:#000000;stroke-width:1.5;" x1="514" x2="694" y1="68.2188" y2="68.2188"/><text fill="#000000" font-family="sans-serif" font-size="14" font-weight="bold" lengthAdjust="spacing" textLength="167" x="518" y="61.1426">Admission and planning</text></g><!--cluster Program lowering--><g id="cluster_Program lowering"><path d="M562.5,339.6094 L687.5,339.6094 A3.75,3.75 0 0 1 690,342.1094 L697,363.2188 L1061.5,363.2188 A2.5,2.5 0 0 1 1064,365.7188 L1064,715.1094 A2.5,2.5 0 0 1 1061.5,717.6094 L562.5,717.6094 A2.5,2.5 0 0 1 560,715.1094 L560,342.1094 A2.5,2.5 0 0 1 562.5,339.6094 " fill="none" style="stroke:#000000;stroke-width:1.5;"/><line style="stroke:#000000;stroke-width:1.5;" x1="560" x2="697" y1="363.2188" y2="363.2188"/><text fill="#000000" font-family="sans-serif" font-size="14" font-weight="bold" lengthAdjust="spacing" textLength="124" x="564" y="356.1426">Program lowering</text></g><!--cluster OpenPLC graph primitives--><g id="cluster_OpenPLC graph primitives"><path d="M1099.5,367.6094 L1284.5,367.6094 A3.75,3.75 0 0 1 1287,370.1094 L1294,391.2188 L1585.5,391.2188 A2.5,2.5 0 0 1 1588,393.7188 L1588,473.1094 A2.5,2.5 0 0 1 1585.5,475.6094 L1099.5,475.6094 A2.5,2.5 0 0 1 1097,473.1094 L1097,370.1094 A2.5,2.5 0 0 1 1099.5,367.6094 " fill="none" style="stroke:#000000;stroke-width:1.5;"/><line style="stroke:#000000;stroke-width:1.5;" x1="1097" x2="1294" y1="391.2188" y2="391.2188"/><text fill="#000000" font-family="sans-serif" font-size="14" font-weight="bold" lengthAdjust="spacing" textLength="184" x="1101" y="384.1426">OpenPLC graph primitives</text></g><!--cluster Project output--><g id="cluster_Project output"><path d="M527,741.6094 L628,741.6094 A3.75,3.75 0 0 1 630.5,744.1094 L637.5,765.2188 L1014,765.2188 A2.5,2.5 0 0 1 1016.5,767.7188 L1016.5,849.1094 A2.5,2.5 0 0 1 1014,851.6094 L527,851.6094 A2.5,2.5 0 0 1 524.5,849.1094 L524.5,744.1094 A2.5,2.5 0 0 1 527,741.6094 " fill="none" style="stroke:#000000;stroke-width:1.5;"/><line style="stroke:#000000;stroke-width:1.5;" x1="524.5" x2="637.5" y1="765.2188" y2="765.2188"/><text fill="#000000" font-family="sans-serif" font-size="14" font-weight="bold" lengthAdjust="spacing" textLength="100" x="528.5" y="758.1426">Project output</text></g><!--entity Semantics--><g id="elem_Semantics"><rect fill="#F1F1F1" height="55.2188" rx="2.5" ry="2.5" style="stroke:#181818;stroke-width:0.5;" width="225" x="530" y="81.1094"/><text fill="#000000" font-family="sans-serif" font-size="14" lengthAdjust="spacing" textLength="109" x="540" y="105.6426">native_semantics</text><text fill="#000000" font-family="sans-serif" font-size="14" lengthAdjust="spacing" textLength="205" x="540" y="123.252">entrypoint and supported subset</text></g><!--entity Validation--><g id="elem_Validation"><rect fill="#F1F1F1" height="55.2188" rx="2.5" ry="2.5" style="stroke:#181818;stroke-width:0.5;" width="166" x="559.5" y="171.1094"/><text fill="#000000" font-family="sans-serif" font-size="14" lengthAdjust="spacing" textLength="106" x="569.5" y="195.6426">native_validation</text><text fill="#000000" font-family="sans-serif" font-size="14" lengthAdjust="spacing" textLength="146" x="569.5" y="213.252">locations and telemetry</text></g><!--entity Operands--><g id="elem_Operands"><rect fill="#F1F1F1" height="37.6094" rx="2.5" ry="2.5" style="stroke:#181818;stroke-width:0.5;" width="188" x="548.5" y="261.6094"/><text fill="#000000" font-family="sans-serif" font-size="14" lengthAdjust="spacing" textLength="168" x="558.5" y="286.1426">PLCopen operand planner</text></g><!--entity Program--><g id="elem_Program"><rect fill="#F1F1F1" height="55.2188" rx="2.5" ry="2.5" style="stroke:#181818;stroke-width:0.5;" width="133" x="576" y="466.1094"/><text fill="#000000" font-family="sans-serif" font-size="14" lengthAdjust="spacing" textLength="99" x="586" y="490.6426">native_program</text><text fill="#000000" font-family="sans-serif" font-size="14" lengthAdjust="spacing" textLength="113" x="586" y="508.252">ordered assembly</text></g><!--entity Ladder--><g id="elem_Ladder"><rect fill="#F1F1F1" height="55.2188" rx="2.5" ry="2.5" style="stroke:#181818;stroke-width:0.5;" width="176" x="845" y="646.1094"/><text fill="#000000" font-family="sans-serif" font-size="14" lengthAdjust="spacing" textLength="86" x="855" y="670.6426">native_ladder</text><text fill="#000000" font-family="sans-serif" font-size="14" lengthAdjust="spacing" textLength="156" x="855" y="688.252">contacts, branches, coils</text></g><!--entity Timer--><g id="elem_Timer"><rect fill="#F1F1F1" height="55.2188" rx="2.5" ry="2.5" style="stroke:#181818;stroke-width:0.5;" width="124" x="871" y="556.1094"/><text fill="#000000" font-family="sans-serif" font-size="14" lengthAdjust="spacing" textLength="77" x="881" y="580.6426">native_timer</text><text fill="#000000" font-family="sans-serif" font-size="14" lengthAdjust="spacing" textLength="104" x="881" y="598.252">TON, TOF, RTO</text></g><!--entity Counter--><g id="elem_Counter"><rect fill="#F1F1F1" height="55.2188" rx="2.5" ry="2.5" style="stroke:#181818;stroke-width:0.5;" width="172" x="847" y="376.1094"/><text fill="#000000" font-family="sans-serif" font-size="14" lengthAdjust="spacing" textLength="48" x="857" y="400.6426">counter</text><text fill="#000000" font-family="sans-serif" font-size="14" lengthAdjust="spacing" textLength="152" x="857" y="418.252">CTU, CTD, shared state</text></g><!--entity Declarations--><g id="elem_Declarations"><rect fill="#F1F1F1" height="55.2188" rx="2.5" ry="2.5" style="stroke:#181818;stroke-width:0.5;" width="230" x="818" y="466.1094"/><text fill="#000000" font-family="sans-serif" font-size="14" lengthAdjust="spacing" textLength="123" x="828" y="490.6426">native_declarations</text><text fill="#000000" font-family="sans-serif" font-size="14" lengthAdjust="spacing" textLength="210" x="828" y="508.252">variables and compatibility blocks</text></g><!--entity Blocks--><g id="elem_Blocks"><rect fill="#F1F1F1" height="55.2188" rx="2.5" ry="2.5" style="stroke:#181818;stroke-width:0.5;" width="172" x="1113" y="404.1094"/><text fill="#000000" font-family="sans-serif" font-size="14" lengthAdjust="spacing" textLength="86" x="1123" y="428.6426">native_blocks</text><text fill="#000000" font-family="sans-serif" font-size="14" lengthAdjust="spacing" textLength="152" x="1123" y="446.252">block pins and variables</text></g><!--entity Graph--><g id="elem_Graph"><rect fill="#F1F1F1" height="55.2188" rx="2.5" ry="2.5" style="stroke:#181818;stroke-width:0.5;" width="201" x="1371" y="404.1094"/><text fill="#000000" font-family="sans-serif" font-size="14" lengthAdjust="spacing" textLength="83" x="1381" y="428.6426">native_graph</text><text fill="#000000" font-family="sans-serif" font-size="14" lengthAdjust="spacing" textLength="181" x="1381" y="446.252">nodes, edges, stable identity</text></g><!--entity Packaging--><g id="elem_Packaging"><rect fill="#F1F1F1" height="55.2188" rx="2.5" ry="2.5" style="stroke:#181818;stroke-width:0.5;" width="204" x="540.5" y="778.1094"/><text fill="#000000" font-family="sans-serif" font-size="14" lengthAdjust="spacing" textLength="111" x="550.5" y="802.6426">native_packaging</text><text fill="#000000" font-family="sans-serif" font-size="14" lengthAdjust="spacing" textLength="184" x="550.5" y="820.252">project/device/pin documents</text></g><!--entity Output--><g id="elem_Output"><rect fill="#F1F1F1" height="58.2188" rx="2.5" ry="2.5" style="stroke:#181818;stroke-width:0.5;" width="135" x="865.5" y="777.6094"/><polygon fill="#F1F1F1" points="983.5,782.6094,983.5,796.6094,995.5,796.6094,995.5,788.6094,989.5,782.6094,983.5,782.6094" style="stroke:#181818;stroke-width:0.5;"/><line style="stroke:#181818;stroke-width:0.5;" x1="989.5" x2="989.5" y1="782.6094" y2="788.6094"/><line style="stroke:#181818;stroke-width:0.5;" x1="995.5" x2="989.5" y1="788.6094" y2="788.6094"/><text fill="#000000" font-family="sans-serif" font-size="14" lengthAdjust="spacing" textLength="105" x="875.5" y="805.1426">Native OpenPLC</text><text fill="#000000" font-family="sans-serif" font-size="14" lengthAdjust="spacing" textLength="102" x="875.5" y="822.752">project directory</text></g><!--entity Caller--><g id="elem_Caller"><ellipse cx="58.5" cy="250.1094" fill="#F1F1F1" rx="8" ry="8" style="stroke:#181818;stroke-width:0.5;"/><path d="M58.5,258.1094 L58.5,285.1094 M45.5,266.1094 L71.5,266.1094 M58.5,285.1094 L45.5,300.1094 M58.5,285.1094 L71.5,300.1094 " fill="none" style="stroke:#181818;stroke-width:0.5;"/><text fill="#000000" font-family="sans-serif" font-size="14" lengthAdjust="spacing" textLength="105" x="6" y="316.1426">TwinForge caller</text></g><!--entity Facade--><g id="elem_Facade"><rect fill="#F1F1F1" height="55.2188" rx="2.5" ry="2.5" style="stroke:#181818;stroke-width:0.5;" width="218" x="239" y="253.1094"/><text fill="#000000" font-family="sans-serif" font-size="14" lengthAdjust="spacing" textLength="198" x="249" y="277.6426">OpenPLCNativeProjectExporter</text><text fill="#000000" font-family="sans-serif" font-size="14" lengthAdjust="spacing" textLength="84" x="249" y="295.252">public facade</text></g><g id="elem_GMN37"><path d="M229,343.1094 L229,385.8125 A0,0 0 0 0 229,385.8125 L467,385.8125 A0,0 0 0 0 467,385.8125 L467,353.1094 L457,343.1094 L352,343.1094 L348,308.3694 L344,343.1094 L229,343.1094 A0,0 0 0 0 229,343.1094 " fill="#FEFFDD" style="stroke:#181818;stroke-width:0.5;"/><path d="M457,343.1094 L457,353.1094 L467,353.1094 L457,343.1094 " fill="#FEFFDD" style="stroke:#181818;stroke-width:0.5;"/><text fill="#000000" font-family="sans-serif" font-size="13" lengthAdjust="spacing" textLength="217" x="235" y="361.6045">Stable public entrance. Callers do not</text><text fill="#000000" font-family="sans-serif" font-size="13" lengthAdjust="spacing" textLength="210" x="235" y="377.9561">coordinate the internal collaborators.</text></g><g id="elem_GMN40"><path d="M1346,308.1094 L1346,350.8125 A0,0 0 0 0 1346,350.8125 L1467.5,350.8125 L1471.5,403.7194 L1475.5,350.8125 L1597,350.8125 A0,0 0 0 0 1597,350.8125 L1597,318.1094 L1587,308.1094 L1346,308.1094 A0,0 0 0 0 1346,308.1094 " fill="#FEFFDD" style="stroke:#181818;stroke-width:0.5;"/><path d="M1587,308.1094 L1587,318.1094 L1597,318.1094 L1587,308.1094 " fill="#FEFFDD" style="stroke:#181818;stroke-width:0.5;"/><text fill="#000000" font-family="sans-serif" font-size="13" lengthAdjust="spacing" textLength="208" x="1352" y="326.6045">"Graph" is OpenPLC's native Ladder</text><text fill="#000000" font-family="sans-serif" font-size="13" lengthAdjust="spacing" textLength="230" x="1352" y="342.9561">node/edge representation, not Graphviz.</text></g><!--link Caller to Facade--><g id="link_Caller_Facade"><path d="M111.23,280.6094 C146.72,280.6094 189.11,280.6094 232.82,280.6094 " fill="none" id="Caller-to-Facade" style="stroke:#181818;stroke-width:1.0;"/><polygon fill="#181818" points="238.82,280.6094,229.82,276.6094,233.82,280.6094,229.82,284.6094,238.82,280.6094" style="stroke:#181818;stroke-width:1.0;"/><text fill="#000000" font-family="sans-serif" font-size="13" lengthAdjust="spacing" textLength="56" x="142" y="277.1045">export(...)</text></g><!--link Facade to Operands--><g id="link_Facade_Operands"><path d="M457.09,280.6094 C487.03,280.6094 513.27,280.6094 542.29,280.6094 " fill="none" id="Facade-to-Operands" style="stroke:#181818;stroke-width:1.0;"/><polygon fill="#181818" points="548.29,280.6094,539.29,276.6094,543.29,280.6094,539.29,284.6094,548.29,280.6094" style="stroke:#181818;stroke-width:1.0;"/></g><!--link Facade to Semantics--><g id="link_Facade_Semantics"><path d="M376.53,253.0994 C406.23,224.7494 456.02,180.9394 506,153.6094 C517.96,147.0694 525.444,143.4238 538.604,138.3338 " fill="none" id="Facade-to-Semantics" style="stroke:#181818;stroke-width:1.0;"/><polygon fill="#181818" points="544.2,136.1694,534.363,135.6853,539.5367,137.9731,537.2489,143.1467,544.2,136.1694" style="stroke:#181818;stroke-width:1.0;"/></g><!--link Facade to Validation--><g id="link_Facade_Validation"><path d="M447.21,253.0794 C483.56,242.8894 518.5826,233.0685 553.3726,223.3185 " fill="none" id="Facade-to-Validation" style="stroke:#181818;stroke-width:1.0;"/><polygon fill="#181818" points="559.15,221.6994,549.4045,220.2765,554.3355,223.0487,551.5633,227.9797,559.15,221.6994" style="stroke:#181818;stroke-width:1.0;"/></g><!--link Facade to Program--><g id="link_Facade_Program"><path d="M433.86,308.1894 C445.36,313.2794 456.73,319.0894 467,325.6094 C529.32,365.1494 584.3267,424.8471 615.1967,461.3671 " fill="none" id="Facade-to-Program" style="stroke:#181818;stroke-width:1.0;"/><polygon fill="#181818" points="619.07,465.9494,616.3148,456.4937,615.8422,462.1308,610.2051,461.6582,619.07,465.9494" style="stroke:#181818;stroke-width:1.0;"/></g><!--link Facade to Packaging--><g id="link_Facade_Packaging"><path d="M448.42,308.1494 C455.46,313.0494 461.81,318.8194 467,325.6094 C573.35,464.6894 414.94,568.0694 506,717.6094 C522.05,743.9594 544.0576,761.0372 569.9476,775.2172 " fill="none" id="Facade-to-Packaging" style="stroke:#181818;stroke-width:1.0;"/><polygon fill="#181818" points="575.21,778.0994,569.2379,770.2678,570.8247,775.6975,565.3949,777.2843,575.21,778.0994" style="stroke:#181818;stroke-width:1.0;"/></g><!--link Program to Declarations--><g id="link_Program_Declarations"><path d="M709.33,493.6094 C741.42,493.6094 774.96,493.6094 811.77,493.6094 " fill="none" id="Program-to-Declarations" style="stroke:#181818;stroke-width:1.0;"/><polygon fill="#181818" points="817.77,493.6094,808.77,489.6094,812.77,493.6094,808.77,497.6094,817.77,493.6094" style="stroke:#181818;stroke-width:1.0;"/></g><!--link Program to Ladder--><g id="link_Program_Ladder"><path d="M673.76,521.3494 C707.14,550.8794 763.4,597.5494 818,628.6094 C829.19,634.9794 835.9479,638.4793 848.1579,643.7293 " fill="none" id="Program-to-Ladder" style="stroke:#181818;stroke-width:1.0;"/><polygon fill="#181818" points="853.67,646.0994,846.9819,638.8696,849.0766,644.1243,843.8219,646.219,853.67,646.0994" style="stroke:#181818;stroke-width:1.0;"/></g><!--link Program to Timer--><g id="link_Program_Timer"><path d="M709.33,514.1494 C757.89,529.2894 817.7522,547.9725 865.1622,562.7625 " fill="none" id="Program-to-Timer" style="stroke:#181818;stroke-width:1.0;"/><polygon fill="#181818" points="870.89,564.5494,863.4896,558.0506,866.1169,563.0604,861.1071,565.6876,870.89,564.5494" style="stroke:#181818;stroke-width:1.0;"/></g><!--link Program to Counter--><g id="link_Program_Counter"><path d="M709.33,473.0694 C750.07,460.3594 797.0822,445.6961 841.0022,431.9961 " fill="none" id="Program-to-Counter" style="stroke:#181818;stroke-width:1.0;"/><polygon fill="#181818" points="846.73,430.2094,836.9472,429.0709,841.9568,431.6983,839.3294,436.7079,846.73,430.2094" style="stroke:#181818;stroke-width:1.0;"/></g><!--link Ladder to Graph--><g id="link_Ladder_Graph"><path d="M1021.17,656.3594 C1094.17,639.8794 1199.8,611.1894 1285,568.6094 C1344.63,538.8094 1400.6413,493.7667 1435.6813,463.1567 " fill="none" id="Ladder-to-Graph" style="stroke:#181818;stroke-width:1.0;"/><polygon fill="#181818" points="1440.2,459.2094,1430.7904,462.118,1436.4345,462.4989,1436.0536,468.1429,1440.2,459.2094" style="stroke:#181818;stroke-width:1.0;"/></g><!--link Timer to Blocks--><g id="link_Timer_Blocks"><path d="M995.22,569.1894 C1019.97,561.9694 1048.24,551.8894 1072,538.6094 C1110.33,517.1894 1143.6012,487.3858 1167.5912,463.4658 " fill="none" id="Timer-to-Blocks" style="stroke:#181818;stroke-width:1.0;"/><polygon fill="#181818" points="1171.84,459.2294,1162.6425,462.7515,1168.2993,462.7597,1168.291,468.4166,1171.84,459.2294" style="stroke:#181818;stroke-width:1.0;"/></g><!--link Timer to Graph--><g id="link_Timer_Graph"><path d="M995.26,575.5594 C1066.13,565.2894 1185.77,545.0194 1285,513.6094 C1330.65,499.1594 1374.7529,479.5408 1411.1329,461.8708 " fill="none" id="Timer-to-Graph" style="stroke:#181818;stroke-width:1.0;"/><polygon fill="#181818" points="1416.53,459.2494,1406.6868,459.5834,1412.0324,461.4339,1410.182,466.7795,1416.53,459.2494" style="stroke:#181818;stroke-width:1.0;"/></g><!--link Counter to Blocks--><g id="link_Counter_Blocks"><path d="M1019.35,412.6594 C1049.33,415.8394 1077.0235,418.7761 1106.9835,421.9561 " fill="none" id="Counter-to-Blocks" style="stroke:#181818;stroke-width:1.0;"/><polygon fill="#181818" points="1112.95,422.5894,1104.4225,417.6618,1107.9779,422.0616,1103.5781,425.6171,1112.95,422.5894" style="stroke:#181818;stroke-width:1.0;"/></g><!--link Counter to Graph--><g id="link_Counter_Graph"><path d="M1019.03,420.9194 C1037.77,427.4494 1056.6,436.3994 1072,448.6094 C1083.41,457.6494 1076.31,469.4694 1089,476.6094 C1191,534.0094 1326.8994,493.8377 1405.7594,461.4677 " fill="none" id="Counter-to-Graph" style="stroke:#181818;stroke-width:1.0;"/><polygon fill="#181818" points="1411.31,459.1894,1401.4652,458.9065,1406.6845,461.088,1404.503,466.3073,1411.31,459.1894" style="stroke:#181818;stroke-width:1.0;"/></g><!--link Blocks to Graph--><g id="link_Blocks_Graph"><path d="M1285.22,431.6094 C1312.32,431.6094 1336.54,431.6094 1364.58,431.6094 " fill="none" id="Blocks-to-Graph" style="stroke:#181818;stroke-width:1.0;"/><polygon fill="#181818" points="1370.58,431.6094,1361.58,427.6094,1365.58,431.6094,1361.58,435.6094,1370.58,431.6094" style="stroke:#181818;stroke-width:1.0;"/></g><!--link Packaging to Output--><g id="link_Packaging_Output"><path d="M744.81,805.9594 C784.75,806.0994 823.52,806.2276 859.26,806.3576 " fill="none" id="Packaging-to-Output" style="stroke:#181818;stroke-width:1.0;"/><polygon fill="#181818" points="865.26,806.3794,856.2746,802.3467,860.26,806.3612,856.2455,810.3466,865.26,806.3794" style="stroke:#181818;stroke-width:1.0;"/></g><!--SRC=[VLLDRnCn4BtxLuno0QGqlND0WfHogPgABfnMGbvxcfXwRSjsKWhYlpF-s8q3APV46Rzvy_N6YIfgX5iUrG5Xuz3StQpXWGik4RYH8ApMVB2UH-i3q_WG8LhmQhkB89L74PKrZ8L7PHptV2I7qLc39jx7Ps9E26ws6Xj8s75fdvJPKY0Ta34kY1qM7TckhTyY2Aur-WNm0EjyP3CjB6gM9USxRxzJY8y_dFKHVM_SVj1Ar18omtK-CkQuUEH4ldWlHnK2vPqhT9eRGyaiu1S3QEAO7E1Rm96Rg4Jeaza_EwleDdc6lSjHqsa867Eq-mb-bkp0jP8yzQmtsefy2faieiOHYJ-pV9rnfpHKjwNoWJxyd7pjrARO0llTr4hzsQQUQ_k4_ZzLkeBhZVKIFPN40nK-w99EPJdhgRcKgV72caY334iOA0snGpe9gtJ833SPTPOWgZ7vTvlR9NIRwoLyxZRPfqiNfox2xaqUyxhxieHrTxLCQahvXiXZcVUwOCx6aYWqQJ2tlJS7xXKVD8OgzT7HpQ2qYiymq7WUI-vNZTD9SwTzeTwu7JYlHfMYX9UQN3Xxax_1gJhwEOqSxKC6dVNFSNfZh4pDHRbDNrGu-OAIXAJ4CyUd1FnR1sbFmEwZsySNLP3X91FQe-9mAV6W15vIiY2js8y4BtdUJLXYuZugsZWYEdr9PfhwLjWgxqtE8YLOrXikBjxLFOMtW7cPNwzMgpUi6jFzhE_6TjosnjWiJsETDDoQvXBOj2V9V3BlzgAAk3KLZRQMINwieBEjp2DZy-ywuwEX0Afh2sbD1LGk6WERooXjAhrbnaQ4mSPeHx0Fqoi8S5_qKj_9zAJHjkAgFhI1fWpackL1Ru4YPI347GaivM6uFlrBM34a1QTO_qGisG4iyc41AaooU1MW2ExuB2HDNoP5qp-6ynWehpo0PU8kL0Vriuds1m00]--></g></svg>