<?xml version="1.0" encoding="us-ascii" standalone="no"?><svg xmlns="http://www.w3.org/2000/svg" xmlns:xlink="http://www.w3.org/1999/xlink" contentStyleType="text/css" height="219px" preserveAspectRatio="none" style="width:2190px;height:219px;background:#FFFFFF;" version="1.1" viewBox="0 0 2190 219" width="2190px" zoomAndPan="magnify"><defs/><g><text fill="#000000" font-family="sans-serif" font-size="14" font-weight="bold" lengthAdjust="spacing" textLength="219" x="978.5" y="24.5332">TwinForge conversion pipeline</text><!--entity Specification--><g id="elem_Specification"><rect fill="#F1F1F1" height="37.6094" rx="2.5" ry="2.5" style="stroke:#181818;stroke-width:0.5;" width="133" x="7" y="88.6094"/><text fill="#000000" font-family="sans-serif" font-size="14" lengthAdjust="spacing" textLength="113" x="17" y="113.1426">L5X specifications</text></g><!--entity Capture--><g id="elem_Capture"><rect fill="#F1F1F1" height="37.6094" rx="2.5" ry="2.5" style="stroke:#181818;stroke-width:0.5;" width="158" x="235" y="88.6094"/><text fill="#000000" font-family="sans-serif" font-size="14" lengthAdjust="spacing" textLength="138" x="245" y="113.1426">Lossless XML capture</text></g><!--entity Captured--><g id="elem_Captured"><rect fill="#F1F1F1" height="55.2188" rx="2.5" ry="2.5" style="stroke:#181818;stroke-width:0.5;" width="126" x="624.5" y="80.1094"/><text fill="#000000" font-family="sans-serif" font-size="14" lengthAdjust="spacing" textLength="106" x="634.5" y="104.6426">CapturedSection</text><text fill="#000000" font-family="sans-serif" font-size="14" lengthAdjust="spacing" textLength="104" x="634.5" y="122.252">source evidence</text></g><!--entity Parser--><g id="elem_Parser"><rect fill="#F1F1F1" height="55.2188" rx="2.5" ry="2.5" style="stroke:#181818;stroke-width:0.5;" width="134" x="917" y="80.1094"/><text fill="#000000" font-family="sans-serif" font-size="14" lengthAdjust="spacing" textLength="97" x="927" y="104.6426">L5X parser and</text><text fill="#000000" font-family="sans-serif" font-size="14" lengthAdjust="spacing" textLength="114" x="927" y="122.252">source converters</text></g><!--entity Model--><g id="elem_Model"><rect fill="#F1F1F1" height="55.2188" rx="2.5" ry="2.5" style="stroke:#181818;stroke-width:0.5;" width="115" x="1243.5" y="80.1094"/><text fill="#000000" font-family="sans-serif" font-size="14" lengthAdjust="spacing" textLength="95" x="1253.5" y="104.6426">Vendor-neutral</text><text fill="#000000" font-family="sans-serif" font-size="14" lengthAdjust="spacing" textLength="38" x="1253.5" y="122.252">model</text></g><!--entity Analysis--><g id="elem_Analysis"><rect fill="#F1F1F1" height="55.2188" rx="2.5" ry="2.5" style="stroke:#181818;stroke-width:0.5;" width="100" x="1452" y="80.1094"/><text fill="#000000" font-family="sans-serif" font-size="14" lengthAdjust="spacing" textLength="80" x="1462" y="104.6426">Analysis and</text><text fill="#000000" font-family="sans-serif" font-size="14" lengthAdjust="spacing" textLength="70" x="1462" y="122.252">enrichment</text></g><!--entity IR--><g id="elem_IR"><rect fill="#F1F1F1" height="37.6094" rx="2.5" ry="2.5" style="stroke:#181818;stroke-width:0.5;" width="149" x="1741" y="45.6094"/><text fill="#000000" font-family="sans-serif" font-size="14" lengthAdjust="spacing" textLength="129" x="1751" y="70.1426">Typed executable IR</text></g><!--entity Target--><g id="elem_Target"><rect fill="#F1F1F1" height="37.6094" rx="2.5" ry="2.5" style="stroke:#181818;stroke-width:0.5;" width="122" x="2062" y="88.6094"/><text fill="#000000" font-family="sans-serif" font-size="14" lengthAdjust="spacing" textLength="102" x="2072" y="113.1426">Target selection</text></g><g id="elem_GMN18"><path d="M574,170.1094 L574,212.8125 A0,0 0 0 0 574,212.8125 L801,212.8125 A0,0 0 0 0 801,212.8125 L801,180.1094 L791,170.1094 L691.5,170.1094 L687.5,135.3694 L683.5,170.1094 L574,170.1094 A0,0 0 0 0 574,170.1094 " fill="#FEFFDD" style="stroke:#181818;stroke-width:0.5;"/><path d="M791,170.1094 L791,180.1094 L801,180.1094 L791,170.1094 " fill="#FEFFDD" style="stroke:#181818;stroke-width:0.5;"/><text fill="#000000" font-family="sans-serif" font-size="13" lengthAdjust="spacing" textLength="201" x="580" y="188.6045">Unknown attributes, elements, and</text><text fill="#000000" font-family="sans-serif" font-size="13" lengthAdjust="spacing" textLength="206" x="580" y="204.9561">source extensions remain available.</text></g><g id="elem_GMN21"><path d="M1211,170.1094 L1211,212.8125 A0,0 0 0 0 1211,212.8125 L1391,212.8125 A0,0 0 0 0 1391,212.8125 L1391,180.1094 L1381,170.1094 L1305,170.1094 L1301,135.3694 L1297,170.1094 L1211,170.1094 A0,0 0 0 0 1211,170.1094 " fill="#FEFFDD" style="stroke:#181818;stroke-width:0.5;"/><path d="M1381,170.1094 L1381,180.1094 L1391,180.1094 L1381,170.1094 " fill="#FEFFDD" style="stroke:#181818;stroke-width:0.5;"/><text fill="#000000" font-family="sans-serif" font-size="13" lengthAdjust="spacing" textLength="159" x="1217" y="188.6045">No CODESYS or OpenPLC</text><text fill="#000000" font-family="sans-serif" font-size="13" lengthAdjust="spacing" textLength="122" x="1217" y="204.9561">representation types.</text></g><!--link Specification to Capture--><g id="link_Specification_Capture"><path d="M140.3,107.6094 C169.53,107.6094 198.17,107.6094 228.72,107.6094 " fill="none" id="Specification-to-Capture" style="stroke:#181818;stroke-width:1.0;"/><polygon fill="#181818" points="234.72,107.6094,225.72,103.6094,229.72,107.6094,225.72,111.6094,234.72,107.6094" style="stroke:#181818;stroke-width:1.0;"/><text fill="#000000" font-family="sans-serif" font-size="13" lengthAdjust="spacing" textLength="33" x="171" y="104.1045">drives</text></g><!--link Capture to Captured--><g id="link_Capture_Captured"><path d="M393.33,107.6094 C462.09,107.6094 554.77,107.6094 618.26,107.6094 " fill="none" id="Capture-to-Captured" style="stroke:#181818;stroke-width:1.0;"/><polygon fill="#181818" points="624.26,107.6094,615.26,103.6094,619.26,107.6094,615.26,111.6094,624.26,107.6094" style="stroke:#181818;stroke-width:1.0;"/><text fill="#000000" font-family="sans-serif" font-size="13" lengthAdjust="spacing" textLength="119" x="424" y="104.1045">preserves all content</text></g><!--link Captured to Parser--><g id="link_Captured_Parser"><path d="M750.6,107.6094 C799.37,107.6094 861.13,107.6094 910.9,107.6094 " fill="none" id="Captured-to-Parser" style="stroke:#181818;stroke-width:1.0;"/><polygon fill="#181818" points="916.9,107.6094,907.9,103.6094,911.9,107.6094,907.9,111.6094,916.9,107.6094" style="stroke:#181818;stroke-width:1.0;"/><text fill="#000000" font-family="sans-serif" font-size="13" lengthAdjust="spacing" textLength="54" x="832" y="104.1045">interprets</text></g><!--link Parser to Model--><g id="link_Parser_Model"><path d="M1051.03,107.6094 C1107.95,107.6094 1183.26,107.6094 1237.29,107.6094 " fill="none" id="Parser-to-Model" style="stroke:#181818;stroke-width:1.0;"/><polygon fill="#181818" points="1243.29,107.6094,1234.29,103.6094,1238.29,107.6094,1234.29,111.6094,1243.29,107.6094" style="stroke:#181818;stroke-width:1.0;"/><text fill="#000000" font-family="sans-serif" font-size="13" lengthAdjust="spacing" textLength="93" x="1084.5" y="88.1045">resolves identity</text><text fill="#000000" font-family="sans-serif" font-size="13" lengthAdjust="spacing" textLength="98" x="1082" y="104.4561">and relationships</text></g><!--link Model to Analysis--><g id="link_Model_Analysis"><path d="M1358.76,107.6094 C1388.17,107.6094 1417.73,107.6094 1445.94,107.6094 " fill="none" id="Model-to-Analysis" style="stroke:#181818;stroke-width:1.0;"/><polygon fill="#181818" points="1451.94,107.6094,1442.94,103.6094,1446.94,107.6094,1442.94,111.6094,1451.94,107.6094" style="stroke:#181818;stroke-width:1.0;"/></g><!--link Analysis to IR--><g id="link_Analysis_IR"><path d="M1552.01,100.8394 C1602.73,93.8394 1676.5964,83.6499 1734.9064,75.5999 " fill="none" id="Analysis-to-IR" style="stroke:#181818;stroke-width:1.0;"/><polygon fill="#181818" points="1740.85,74.7794,1731.3875,72.0478,1735.897,75.4632,1732.4816,79.9726,1740.85,74.7794" style="stroke:#181818;stroke-width:1.0;"/><text fill="#000000" font-family="sans-serif" font-size="13" lengthAdjust="spacing" textLength="127" x="1583" y="77.1045">executable semantics</text></g><!--link Analysis to Target--><g id="link_Analysis_Target"><path d="M1552.21,110.5494 C1600.32,113.2594 1675.66,117.0994 1741,118.6094 C1807.2,120.1394 1823.8,120.1794 1890,118.6094 C1948.45,117.2294 2009.1295,114.2172 2055.9495,111.5772 " fill="none" id="Analysis-to-Target" style="stroke:#181818;stroke-width:1.0;"/><polygon fill="#181818" points="2061.94,111.2394,2052.7291,107.7524,2056.9479,111.5209,2053.1795,115.7397,2061.94,111.2394" style="stroke:#181818;stroke-width:1.0;"/><text fill="#000000" font-family="sans-serif" font-size="13" lengthAdjust="spacing" textLength="108" x="1761.5" y="115.1045">descriptive outputs</text></g><!--link IR to Target--><g id="link_IR_Target"><path d="M1890.06,74.9594 C1942.68,82.3694 2006.6787,91.3725 2055.9487,98.3125 " fill="none" id="IR-to-Target" style="stroke:#181818;stroke-width:1.0;"/><polygon fill="#181818" points="2061.89,99.1494,2053.5359,93.9332,2056.9389,98.452,2052.4201,101.855,2061.89,99.1494" style="stroke:#181818;stroke-width:1.0;"/><text fill="#000000" font-family="sans-serif" font-size="13" lengthAdjust="spacing" textLength="110" x="1921" y="77.1045">executable outputs</text></g><!--SRC=[PPF1Rjim38RlUWgYvsMtNNOOC6GR421TYwGREY0NHM8IeJ8bY7JQlFqeA_7ixcQGtq-HFsa94X6UNWFzIEM8u1ATiN1813baZ87GH3m8I88IZYS17mewKS0OVWcKRR6TohgS24csSj5wbR1qZ3X1-6HzqdUESB2HqPWHWhlrfsVWZ2uSWhErDj-1PTXEGpC-CKTaXkVxDJYRfIyuA9RjUyfUGtxRkjuHfxuu13m7Z-HcEl- -AMsTiO0bF-gQGw8c3Sh7WPZgVYFvL1Q4lHGRTzGbZt5Wx-lN5FrADbuuS7i0gGHtwjJ5WRubfuAdIqOF-8Qk5xlNo6epiAlDZBAwIW76s6OUa1OqPcOgB1PVRiF3P_0bd97DBJ19UitcWZgg0c1Zh3w8jcf6eDBD3MM39eiAXCqrLjE30PhLGYdMGdK54kIo8tL0mx5j_nGocmPNsUZ4w5UDhZPQQM85OsUrc7k7NStGuP1T2LbqH4Yzv5vxqnepPbBkXXXAWh1F8gc3TFXtAW2_w8NIAu4LAM7V2_87KC_h1lLB9rBcTcrlQbRzhLYdx6nGqTc6M5_wQFHWeBxotrljO01-9bW-VFk-_RE5LE0X8pskbnelEEo4f2rJz3fuKkul]--></g></svg>